HIERARCHY
ROOT Hips
{
	OFFSET 0.00000 0.00000 0.00000
	CHANNELS 6 Xposition Yposition Zposition Zrotation Yrotation Xrotation 
	JOINT LHipJoint
	{
		OFFSET 0 0 0
		CHANNELS 3 Zrotation Yrotation Xrotation
		JOINT LeftUpLeg
		{
			OFFSET 1.55766 -1.60504 1.11378
			CHANNELS 3 Zrotation Yrotation Xrotation
			JOINT LeftLeg
			{
				OFFSET 2.29047 -6.29302 0.00000
				CHANNELS 3 Zrotation Yrotation Xrotation
				JOINT LeftFoot
				{
					OFFSET 2.52265 -6.93093 0.00000
					CHANNELS 3 Zrotation Yrotation Xrotation
					JOINT LeftToeBase
					{
						OFFSET 0.17633 -0.48446 2.02656
						CHANNELS 3 Zrotation Yrotation Xrotation
						End Site
						{
							OFFSET 0.00000 -0.00000 1.04989
						}
					}
				}
			}
		}
	}
	JOINT RHipJoint
	{
		OFFSET 0 0 0
		CHANNELS 3 Zrotation Yrotation Xrotation
		JOINT RightUpLeg
		{
			OFFSET -1.48599 -1.60504 1.11378
			CHANNELS 3 Zrotation Yrotation Xrotation
			JOINT RightLeg
			{
				OFFSET -2.27280 -6.24448 0.00000
				CHANNELS 3 Zrotation Yrotation Xrotation
				JOINT RightFoot
				{
					OFFSET -2.50834 -6.89161 0.00000
					CHANNELS 3 Zrotation Yrotation Xrotation
					JOINT RightToeBase
					{
						OFFSET -0.26967 -0.74090 2.08741
						CHANNELS 3 Zrotation Yrotation Xrotation
						End Site
						{
							OFFSET -0.00000 -0.00000 1.10614
						}
					}
				}
			}
		}
	}
	JOINT LowerBack
	{
		OFFSET 0 0 0
		CHANNELS 3 Zrotation Yrotation Xrotation
		JOINT Spine
		{
			OFFSET 0.06481 2.02437 -0.08472
			CHANNELS 3 Zrotation Yrotation Xrotation
			JOINT Spine1
			{
				OFFSET 0.00015 1.96711 0.18069
				CHANNELS 3 Zrotation Yrotation Xrotation
				JOINT Neck
				{
					OFFSET 0 0 0
					CHANNELS 3 Zrotation Yrotation Xrotation
					JOINT Neck1
					{
						OFFSET -0.29961 1.68293 -0.13041
						CHANNELS 3 Zrotation Yrotation Xrotation
						JOINT Head
						{
							OFFSET 0.59697 1.61501 -0.14669
							CHANNELS 3 Zrotation Yrotation Xrotation
							End Site
							{
								OFFSET 0.22973 1.74906 -0.10148
							}
						}
					}
				}
				JOINT LeftShoulder
				{
					OFFSET 0 0 0
					CHANNELS 3 Zrotation Yrotation Xrotation
					JOINT LeftArm
					{
						OFFSET 3.37968 1.02893 0.31147
						CHANNELS 3 Zrotation Yrotation Xrotation
						JOINT LeftForeArm
						{
							OFFSET 5.19807 -0.00000 -0.00000
							CHANNELS 3 Zrotation Yrotation Xrotation
							JOINT LeftHand
							{
								OFFSET 3.09370 -0.00000 -0.00000
								CHANNELS 3 Zrotation Yrotation Xrotation
								JOINT LeftFingerBase
								{
									OFFSET 0 0 0
									CHANNELS 3 Zrotation Yrotation Xrotation
									JOINT LeftHandIndex1
									{
										OFFSET 0.67263 -0.00000 -0.00000
										CHANNELS 3 Zrotation Yrotation Xrotation
										End Site
										{
											OFFSET 0.54229 -0.00000 -0.00000
										}
									}
								}
								JOINT LThumb
								{
									OFFSET 0 0 0
									CHANNELS 3 Zrotation Yrotation Xrotation
									End Site
									{
										OFFSET 0.55057 -0.00000 0.55057
									}
								}
							}
						}
					}
				}
				JOINT RightShoulder
				{
					OFFSET 0 0 0
					CHANNELS 3 Zrotation Yrotation Xrotation
					JOINT RightArm
					{
						OFFSET -3.38254 0.96355 -0.16120
						CHANNELS 3 Zrotation Yrotation Xrotation
						JOINT RightForeArm
						{
							OFFSET -5.45222 -0.00000 -0.00000
							CHANNELS 3 Zrotation Yrotation Xrotation
							JOINT RightHand
							{
								OFFSET -3.01284 -0.00000 -0.00000
								CHANNELS 3 Zrotation Yrotation Xrotation
								JOINT RightFingerBase
								{
									OFFSET 0 0 0
									CHANNELS 3 Zrotation Yrotation Xrotation
									JOINT RightHandIndex1
									{
										OFFSET -0.62230 -0.00000 -0.00000
										CHANNELS 3 Zrotation Yrotation Xrotation
										End Site
										{
											OFFSET -0.50171 -0.00000 -0.00000
										}
									}
								}
								JOINT RThumb
								{
									OFFSET 0 0 0
									CHANNELS 3 Zrotation Yrotation Xrotation
									End Site
									{
										OFFSET -0.50937 -0.00000 0.50937
									}
								}
							}
						}
					}
				}
			}
		}
	}
}
MOTION
Frames: 7
Frame Time: 0.047619
0.00 0.00 0.00 -180.8830 14.2540 -170.4690 0.0000 0.0000 0.0000 -22.2893 -9.2223 -36.5505 6.3247 14.7358 46.2714 0.9826 -9.6214 -17.9385 0.9609 -6.2418 -17.4876 0.0000 0.0000 0.0000 15.7926 9.4802 -22.5850 -13.2017 -18.8538 69.7508 -4.1052 8.0983 41.5875 -0.0886 -1.9197 5.2838 0.9877 4.0054 0.4845 -2.7200 5.6437 -6.3026 -3.7338 2.8184 -6.4602 -31.1556 -10.5713 16.3422 40.4879 -18.1872 -1.6704 20.4153 -10.0857 4.4167 -0.0000 0.0000 0.0000 -81.2929 13.5357 33.9984 18.3310 -28.5789 -4.7065 -0.0000 0.0000 -28.6106 13.2464 -11.4659 -2.6792 -7.1250 0.0000 -0.0000 -9.7296 18.3050 6.2725 -0.0000 0.0000 0.0000 88.7447 -4.6928 11.8145 -14.9113 24.0224 -3.1897 0.0000 0.0000 25.8773 -10.7131 -4.1555 0.7854 7.1250 -0.0000 -0.0000 13.0244 -33.9827 3.5989
0.00 0.00 0.00 -182.2860 13.4181 -171.7710 0.0000 0.0000 0.0000 -25.1446 -7.1743 -31.5373 5.2963 13.7099 42.0878 0.9106 -11.0755 -17.5947 0.8448 -5.8627 -16.3865 0.0000 0.0000 0.0000 13.3226 10.6626 -33.9570 -19.7700 -19.9987 89.3274 -0.9823 11.0124 25.7133 -0.2215 3.0293 -8.3604 -0.4541 3.1798 2.0752 -3.0737 4.3757 -5.6955 -3.3212 2.2247 -6.8903 -31.1752 -10.2720 15.6180 40.6596 -17.5842 -1.9165 20.5877 -9.7374 4.2559 0.0000 -0.0000 0.0000 -80.7165 11.4995 33.4669 19.5520 -30.0989 -5.3049 -0.0000 0.0000 -34.2028 12.6996 -11.1362 -2.4922 -7.1250 0.0000 -0.0000 -10.1205 18.6689 6.4496 0.0000 -0.0000 0.0000 89.0027 -6.1336 8.2254 -14.2941 23.1536 -2.9428 0.0000 0.0000 26.8813 -10.7331 -4.7362 0.8966 7.1250 -0.0000 -0.0000 13.1063 -34.5588 3.4346
0.00 0.00 0.00 -181.1300 -3.1818 -173.0630 0.0000 0.0000 0.0000 -26.0392 -10.1677 -11.9561 5.1387 13.5383 41.4184 2.0511 -15.9504 -26.4433 0.9104 -6.0800 -17.0166 0.0000 0.0000 0.0000 16.4618 13.4666 -45.4243 -4.4761 -12.7684 38.5075 -1.3649 0.4392 22.2563 -1.5179 7.7800 -22.0478 -2.2386 -1.3001 3.7222 -0.4612 -2.0227 -3.9439 0.9598 -0.9568 -6.1276 -31.1666 -10.9891 16.7630 39.8334 -18.9367 -2.5021 19.8090 -10.6014 4.3031 0.0000 0.0000 0.0000 -86.2611 5.1608 38.3679 26.6538 -37.8470 -9.2859 -0.0000 0.0000 -36.5905 13.1183 -13.9519 -3.2160 -7.1250 0.0000 -0.0000 -9.7758 15.8059 6.8451 0.0000 0.0000 0.0000 86.2626 -18.8960 4.4279 -13.3313 21.7708 -2.5749 0.0000 0.0000 29.1120 -5.2038 -2.2811 0.2077 7.1250 -0.0000 -0.0000 17.0498 -31.9419 5.6693
0.00 0.00 0.00 -181.8610 -3.7327 -169.1280 0.0000 0.0000 0.0000 -26.7996 -8.1126 -7.6609 6.0475 14.4742 45.1719 2.4441 -22.7574 -30.3088 0.0451 -1.3708 -3.7697 0.0000 0.0000 0.0000 22.6734 4.0991 -37.1054 -2.4650 -9.7739 28.2476 0.2216 9.2735 7.7851 -0.6593 5.1935 -14.4611 -0.7031 0.4278 -4.6107 -1.6753 0.0468 -6.0507 -1.3201 -0.1998 -3.6575 -30.1814 -7.7303 19.6444 40.6845 -21.7694 -4.0863 19.9424 -14.2619 4.1632 -0.0000 0.0000 0.0000 -87.4260 12.7863 30.8354 22.6720 -33.7282 -6.9553 -0.0000 0.0000 -30.5975 7.6472 -13.9775 -1.8575 -7.1250 0.0000 -0.0000 -13.4833 16.1270 9.4765 -0.0000 0.0000 0.0000 89.4088 -20.2968 0.1638 -12.3272 20.2935 -2.2145 0.0000 0.0000 31.5150 -5.3595 -2.4557 0.2303 7.1250 -0.0000 -0.0000 16.9613 -32.1151 5.5634
0.00 0.00 0.00 -180.1000 4.0571 -167.3920 0.0000 0.0000 0.0000 -24.7600 1.0108 -11.5034 8.7239 16.6267 55.1302 -0.6312 -27.7989 -15.7186 0.6091 -4.9955 -13.8958 0.0000 0.0000 0.0000 24.8927 7.6657 -32.3831 -2.9782 -10.6596 31.1404 0.4868 14.8811 -3.5682 -0.1216 2.2477 -6.1907 3.1397 2.6888 -7.4331 -2.0285 4.2090 -7.4608 -3.6798 2.2629 -3.2331 -30.3733 -7.4264 19.6933 40.3486 -21.9971 -2.7816 19.8013 -14.4157 4.5564 0.0000 -0.0000 0.0000 -90.2457 17.3945 6.2712 17.0770 -26.9591 -4.1222 -0.0000 0.0000 -45.2093 19.9100 -7.0107 -2.5312 -7.1250 0.0000 -0.0000 -5.0302 22.5372 2.7283 0.0000 -0.0000 0.0000 88.8354 -16.3239 5.1709 -12.6052 20.7060 -2.3118 0.0000 0.0000 33.1675 -2.8377 -1.8792 0.0931 7.1250 -0.0000 -0.0000 18.7978 -31.4730 6.5315
0.00 0.00 0.00 -173.4960 3.0001 -168.7260 0.0000 0.0000 0.0000 -11.9001 -11.0090 -36.9727 2.9727 10.6508 31.1110 -0.5805 -13.3950 6.1064 0.4386 -4.2496 -11.7798 0.0000 0.0000 0.0000 29.6924 -1.0994 -7.2703 -7.8249 -15.9890 51.9296 -0.5604 21.1183 -18.9448 -2.2137 9.2977 -26.7312 8.4687 1.9399 -6.0383 0.8123 2.8604 -5.8691 -3.7872 1.4077 -2.4111 -28.8869 -6.5336 18.7406 42.4307 -19.0925 -6.9028 21.3140 -13.1974 2.5714 -0.0000 0.0000 0.0000 -88.5917 14.5139 19.2593 16.5441 -26.2528 -3.8835 -0.0000 0.0000 -32.7859 13.8984 -11.2825 -2.7716 -7.1250 0.0000 -0.0000 -9.2781 18.4515 5.9429 -0.0000 0.0000 0.0000 91.1125 0.6878 38.6511 -20.3113 31.0155 -5.6909 0.0000 0.0000 21.4848 -10.0891 1.4822 -0.2637 7.1250 -0.0000 -0.0000 12.7205 -28.3797 5.2651
0.00 0.00 0.00 -184.3110 3.7252 -171.8210 0.0000 0.0000 0.0000 -28.5513 -1.8481 -11.3643 2.2519 9.3721 26.9663 -0.0753 -19.1622 -12.8191 0.8267 -5.8011 -16.2083 0.0000 0.0000 0.0000 12.8607 14.7001 -45.3815 -9.6006 -17.1791 58.1450 -0.2168 -0.4146 -8.9552 -2.3223 9.5074 -27.3957 -3.0663 -0.2180 -0.7518 -2.9429 -0.1542 -3.5091 -1.3144 0.0703 -3.1843 -31.3082 -9.7402 17.8429 41.6934 -16.9965 -3.2734 22.2748 -9.7368 3.4382 -0.0000 0.0000 0.0000 -84.1700 6.6627 38.4825 20.7744 -31.5640 -5.9314 -0.0000 0.0000 -37.5135 18.2449 -14.1431 -4.6051 -7.1250 0.0000 -0.0000 -6.2796 15.1815 4.4431 -0.0000 0.0000 0.0000 87.7841 -8.9027 17.0039 -13.7664 22.3998 -2.7385 0.0000 0.0000 25.6524 -9.8812 -3.1002 0.5397 7.1250 -0.0000 -0.0000 13.5171 -32.9065 4.1036
